<?xml version="1.0" encoding="UTF-8"?>
<svg id="Layer_1" xmlns="http://www.w3.org/2000/svg" version="1.1" viewBox="0 0 500 500">
  <!-- Generator: Adobe Illustrator 29.3.1, SVG Export Plug-In . SVG Version: 2.1.0 Build 151)  -->
  <defs>
    <style>
      .st0 {
        fill: #323e26;
      }

      .st1 {
        fill: none;
        stroke: #313d26;
        stroke-linecap: round;
        stroke-miterlimit: 10;
        stroke-width: 4px;
      }
    </style>
  </defs>
  <path class="st1" d="M329.7,419.09s-18.65-9.99-35.08-22.25c-14.24-10.62-22.29-27.38-22.5-45.14-.11-9.09-.42-18.65-1.37-30.66-1.19-14.93,7.4-9.89,12.68-8.39,6.96,1.97,14.07,4.23,21.24,5.14,8.67,1.1,20.05.82,30.85.87,12.91.05,27.17-.51,41.73-4.48,6.66-1.82,17.49-5.61,26.12-11.74,4.56-3.24,12.54-11.94,26.13-16.01,9.24-2.76,28,2.6,34.04,6.21,2,1.2,2.73,3.93,1.28,5.76-1.19,1.5-3.19,2.04-6.45-1.8-3.78-4.44-11.1-12.86-20.53-18.94-4.15-2.67-8.97-5.52-12.85-7.54-10.06-5.22-30.07-14.94-45.42-17.53-13.66-2.3-29.54-1.09-39.42,1.98-6.36,1.97-12.23,5.23-17.31,9.55-8.92,7.6-24.32,20.82-29.4,25.81-4.61,4.53-12.3,10.24-16.65,12.45-1.79.91-3.94.98-5.69,0-3.67-2.05-3.83-6.96-4.78-12.52-1.92-11.28-.75-41.06,1.99-56.46,1.65-9.28-2.7-13.79-6.41-15.9-1.99-1.13-4.25-1.72-6.54-1.9l-9.47-.75c-2.87-.23-5.75-.41-8.63-.5-5.35-.17-18.4-1.07-37.21-5.52-19.86-4.7-24.74-12.58-25.91-15.65-.52-1.36-1.03-2.72-1.65-4.04l-4.73-10.1c-2.23-4.76-5.06-9.22-8.49-13.21-4.99-5.79-11.35-11.99-9.83-3.87,1.47,7.82,5.21,17.63,9.09,25.32,2.74,5.45,7.63,9.52,13.52,11.16l9.47,2.64s19.46,5.22,28.39,4.44c7.08-.62,27.39-5.34,36.53,1.12,9.14,6.46-1.69,19.76-1.69,19.76,0,0-6.36,10.59-31.27,16.51-13.93,3.31-22.01,5.38-25.63,10.13-3.96,5.2-1.38,6.3,1.75,6.24,4.03-.08,7.85-1.85,10.73-4.68,3.66-3.58,8.11-10.13,9.47-21.36,2.96-24.42,17.05-30.18,21.77-31.34.95-.23,1.88-.48,2.81-.76,3.69-1.11,14.51-3.5,32.47-.56,18.23,2.98,19.02,5.63,28.77,9.93,9.81,4.32,21.01,6.42,30.78.28,5.4-3.4,8.8-8.82,10.77-13,1.11-2.35,1.9-4.83,2.55-7.35.86-3.36,3.65-11.73,10.66-14.7,5.87-2.48,7.61,2.38,7.28,5.47-.38,3.55-4.24,6.31-7.37,8.03-7.56,4.15-23.32,14.94-33.2,16.94-12.65,2.55-22.06.33-24.91-3.79-4.01-5.79-1.51-10.73.15-16.93,1.69-6.3,3.91-16.72,4.76-23.19,2.09-15.89,2.28-30.08,2.85-49.14.77-25.52-16.67-37.68-16.67-37.68,0,0-11.36-9.75-25.2-12.82-8.72-1.93-20.94-1.68-28.47-.59-6.78.98-13.5,2.52-19,6.59-3.77,2.79-6.18,5.85-2.03,7.52,6.57,2.65,19.18,1.98,25.4,1.44,2.19-.19,4.33-.51,6.48-.97,9.13-1.96,37.76-8.14,44.55-13.11,6.95-5.09-3.63-7.42-3.63-7.42,0,0-12.6-2.37-20.34-3.16-16.32-1.67-28.53.1-39.06,1.96-9.01,1.6-17.61,5.1-24.93,10.6-6.27,4.71-8.87,10.94-3.56,15.3,6.35,5.21,15.94,7.07,22.63,7.72,3.92.38,7.86.32,11.77-.15,12.71-1.5,51.75-6.24,65.02-9.25,15.95-3.61,22.99-11.18,24.06-15.35,1.07-4.17.06-9-3.7-9.32-3.65-.31-3.94,3.07-4.38,6.88-.46,3.95-.07,7.95.98,11.78,2.17,7.92,9.94,27.54,11.03,61.01.36,11.18-.32,18.33-1.45,25.23-2.69,16.35-10.83,28.22-30.56,32.55-18.51,4.07-48.8,4.6-66.34-3.66-25.17-11.85-30.77-50.15-33.65-73.26-2.74-21.97-10.1-31.43-14.52-29.68-4.42,1.75-2.22,10.46,2.35,14.1,2.81,2.25,5.54,3.76,7.86,5.02,6.03,3.26,13.69,4.73,20.51,5.31,10.7.92,25.89-1.04,37.48-3.3,52.29-10.21,37.05,72.24,37.05,72.24"/>
  <g>
    <path class="st0" d="M74.92,218.46c6.06-11.94,16.74-21.05,31.88-24.31,28.95-6.23,53.59,14.15,60.93,48.28,5.73,26.65.12,56.54-15.45,78.35,2.53-.35,5.26-.73,7.94-1.31,23.01-4.95,35.83-19.94,40.1-38.31.77-.16,2.27.31,2.78.81-4.71,20.07-18.26,35.42-42.61,40.66-3.83.82-7.33,1.37-10.9,1.54-10.38,13.27-24.75,22.98-42.39,26.77-36.43,7.83-60.31-15.52-66.78-45.62-6.23-28.95,3.64-65.17,34.48-86.85ZM143.61,324.25c-38.09-.83-66.25-32.89-73.05-64.53-2.52-11.7-2.07-23.63,1.36-33.79-24.58,20.93-32.35,52.89-26.79,78.78,6.06,28.18,28.25,49.29,61.23,42.19,15.34-3.3,27.84-11.4,37.25-22.65ZM107.37,198.64c-26.84,5.77-38.57,32.37-32.55,60.36,6.68,31.06,34.48,62.39,71.52,62.05,16.16-20.93,22.19-50.71,16.46-77.36-6.8-31.64-28.78-50.78-55.43-45.05Z"/>
    <path class="st0" d="M196.07,375.1c-11.09,1.58-23.34.6-35.03-4.3l-5.21,62.5-4.79,1.03,12.61-149.35c-41.23,10.67-53.4,38.97-48.33,62.55,0,0-9.02-6.49,0,0l-4.29,1.52c-9.67-6.74,0,0,0,0-5.81-27.03,8.81-58.86,56.74-69.17,41.6-8.95,69.64,6.69,75.37,33.34,4.99,23.2-7.25,52.11-39.98,60.35,14.58,5.29,23.97,32.15,34.17,51.63,7.43,14.05,14.97,22.05,27.05,19.46,6.33-1.36,11.39-4.86,15.02-9.45l2.78,3.62c-4.2,4.72-9.53,8.87-17.2,10.52-15.15,3.26-23.99-7.08-31.32-21.55-10.25-19.66-21.94-51.65-37.61-52.69ZM168.4,283.76l-6.95,83.34c12.77,5.28,26.08,5.62,37.59,3.15,32.02-6.89,43.78-34.29,39.12-55.95-5.24-24.35-30.64-38.95-69.75-30.53Z"/>
  </g>
</svg>