<?xml version="1.0" encoding="utf-8"?>
<!-- Generator: Adobe Illustrator 28.0.0, SVG Export Plug-In . SVG Version: 6.00 Build 0)  -->
<svg version="1.1" id="Layer_1" xmlns="http://www.w3.org/2000/svg" xmlns:xlink="http://www.w3.org/1999/xlink" x="0px" y="0px"
	 viewBox="0 0 612 612" style="enable-background:new 0 0 612 612;" xml:space="preserve">
<style type="text/css">
	.st0{fill:#F1DCCD;}
	.st1{fill:#C29D93;}
</style>
<rect class="st0" width="612" height="612"/>
<g>
	<path class="st1" d="M39.7,50.4c1.2-10.2,15.4-29.8,44.6-39s53.3-2.8,56.4,7c3.5,11.1-20.2,26.7-39.4,22.8
		C45.5,30,37.9,65.8,39.7,50.4z"/>
	<path class="st1" d="M143.2,35.8C142,46,128.5,65.4,99.3,74.6s-54.1,2.9-57.2-6.8C38.6,56.7,62.4,41.1,81.6,45
		C137.4,56.2,145,20.4,143.2,35.8z"/>
</g>
<g>
	<path class="st1" d="M345.1,50.4c1.2-10.2,15.4-29.8,44.6-39c29.2-9.2,53.3-2.8,56.4,7c3.5,11.1-20.2,26.7-39.4,22.8
		C350.9,30,343.3,65.8,345.1,50.4z"/>
	<path class="st1" d="M448.6,35.8c-1.2,10.2-14.7,29.6-43.9,38.9c-29.2,9.2-54.1,2.9-57.2-6.8C344,56.7,367.8,41.1,387,45
		C442.8,56.2,450.4,20.4,448.6,35.8z"/>
</g>
<g>
	<path class="st1" d="M186.6,160c1.2-10.2,15.4-29.8,44.6-39s53.3-2.8,56.4,7c3.5,11.1-20.2,26.7-39.4,22.8
		C192.4,139.6,184.8,175.4,186.6,160z"/>
	<path class="st1" d="M290,145.4c-1.2,10.2-14.7,29.6-43.9,38.9s-54.1,2.9-57.2-6.8c-3.5-11.1,20.2-26.7,39.4-22.8
		C284.2,165.8,291.8,130,290,145.4z"/>
</g>
<g>
	<path class="st1" d="M482.4,160c1.2-10.2,15.4-29.8,44.6-39c29.2-9.2,53.3-2.8,56.4,7c3.5,11.1-20.2,26.7-39.4,22.8
		C488.2,139.6,480.6,175.4,482.4,160z"/>
	<path class="st1" d="M585.9,145.4c-1.2,10.2-14.7,29.6-43.9,38.9s-54.1,2.9-57.2-6.8c-3.5-11.1,20.2-26.7,39.4-22.8
		C580,165.8,587.6,130,585.9,145.4z"/>
</g>
<g>
	<path class="st1" d="M26.1,259.8c1.2-10.2,15.4-29.8,44.6-39c29.2-9.2,53.3-2.8,56.4,7c3.5,11.1-20.2,26.7-39.4,22.8
		C32,239.3,24.4,275.1,26.1,259.8z"/>
	<path class="st1" d="M129.6,245.1c-1.2,10.2-14.7,29.6-43.9,38.9c-29.2,9.2-54.1,2.9-57.2-6.8C25,266,48.8,250.5,68,254.3
		C123.8,265.6,131.4,229.8,129.6,245.1z"/>
</g>
<g>
	<path class="st1" d="M331.5,259.8c1.2-10.2,15.4-29.8,44.6-39c29.2-9.2,53.3-2.8,56.4,7c3.5,11.1-20.2,26.7-39.4,22.8
		C337.4,239.3,329.8,275.1,331.5,259.8z"/>
	<path class="st1" d="M435,245.1c-1.2,10.2-14.7,29.6-43.9,38.9c-29.2,9.2-54.1,2.9-57.2-6.8c-3.5-11.1,20.2-26.7,39.4-22.8
		C429.2,265.6,436.8,229.8,435,245.1z"/>
</g>
<g>
	<path class="st1" d="M173,369.4c1.2-10.2,15.4-29.8,44.6-39s53.3-2.8,56.4,7c3.5,11.1-20.2,26.7-39.4,22.8
		C178.8,348.9,171.2,384.7,173,369.4z"/>
	<path class="st1" d="M276.5,354.7c-1.2,10.2-14.7,29.6-43.9,38.9s-54.1,2.9-57.2-6.8c-3.5-11.1,20.2-26.7,39.4-22.8
		C270.6,375.2,278.2,339.4,276.5,354.7z"/>
</g>
<g>
	<path class="st1" d="M468.8,369.4c1.2-10.2,15.4-29.8,44.6-39c29.2-9.2,53.3-2.8,56.4,7c3.5,11.1-20.2,26.7-39.4,22.8
		C474.6,348.9,467,384.7,468.8,369.4z"/>
	<path class="st1" d="M572.3,354.7c-1.2,10.2-14.7,29.6-43.9,38.9c-29.2,9.2-54.1,2.9-57.2-6.8c-3.5-11.1,20.2-26.7,39.4-22.8
		C566.5,375.2,574.1,339.4,572.3,354.7z"/>
</g>
<g>
	<path class="st1" d="M32.9,468.4c1.2-10.2,15.4-29.8,44.6-39s53.3-2.8,56.4,7c3.5,11.1-20.2,26.7-39.4,22.8
		C38.7,448,31.1,483.8,32.9,468.4z"/>
	<path class="st1" d="M136.4,453.8c-1.2,10.2-14.7,29.6-43.9,38.9c-29.2,9.2-54.1,2.9-57.2-6.8c-3.5-11.1,20.2-26.7,39.4-22.8
		C130.6,474.2,138.2,438.4,136.4,453.8z"/>
</g>
<g>
	<path class="st1" d="M338.3,468.4c1.2-10.2,15.4-29.8,44.6-39s53.3-2.8,56.4,7c3.5,11.1-20.2,26.7-39.4,22.8
		C344.2,448,336.5,483.8,338.3,468.4z"/>
	<path class="st1" d="M441.8,453.8c-1.2,10.2-14.7,29.6-43.9,38.9c-29.2,9.2-54.1,2.9-57.2-6.8c-3.5-11.1,20.2-26.7,39.4-22.8
		C436,474.2,443.6,438.4,441.8,453.8z"/>
</g>
<g>
	<path class="st1" d="M179.8,578c1.2-10.2,15.4-29.8,44.6-39s53.3-2.8,56.4,7c3.5,11.1-20.2,26.7-39.4,22.8
		C185.6,557.6,178,593.4,179.8,578z"/>
	<path class="st1" d="M283.3,563.4c-1.2,10.2-14.7,29.6-43.9,38.9s-54.1,2.9-57.2-6.8c-3.5-11.1,20.2-26.7,39.4-22.8
		C277.4,583.8,285,548,283.3,563.4z"/>
</g>
<g>
	<path class="st1" d="M475.6,578c1.2-10.2,15.4-29.8,44.6-39c29.2-9.2,53.3-2.8,56.4,7c3.5,11.1-20.2,26.7-39.4,22.8
		C481.4,557.6,473.8,593.4,475.6,578z"/>
	<path class="st1" d="M579.1,563.4c-1.2,10.2-14.7,29.6-43.9,38.9c-29.2,9.2-54.1,2.9-57.2-6.8c-3.5-11.1,20.2-26.7,39.4-22.8
		C573.3,583.8,580.9,548,579.1,563.4z"/>
</g>
</svg>
