<?xml version="1.0" encoding="UTF-8"?>
<svg id="Layer_1" data-name="Layer 1" xmlns="http://www.w3.org/2000/svg" viewBox="0 0 222.74 258">
  <path d="M126.92,257s-13.01-6.97-24.47-15.52c-9.93-7.41-15.55-19.11-15.7-31.49-.08-6.35-.29-13.01-.95-21.39-.83-10.41,5.16-6.9,8.86-5.86,4.86,1.36,9.81,2.95,14.82,3.59,6.05.76,14,.57,21.52.6,9.01.03,18.97-.37,29.12-3.13,4.65-1.27,12.2-3.92,18.22-8.19,3.17-2.25,8.74-8.33,18.24-11.17,6.44-1.92,19.54,1.81,23.74,4.33,1.4.84,1.9,2.75.89,4.02-.83,1.05-2.22,1.43-4.49-1.25-2.63-3.09-7.74-8.98-14.33-13.22-2.9-1.87-6.25-3.86-8.97-5.25-7.01-3.65-20.98-10.43-31.69-12.24-9.54-1.6-20.6-.76-27.5,1.38-4.44,1.38-8.54,3.65-12.08,6.67-6.22,5.3-16.97,14.52-20.52,18.01-3.22,3.16-8.59,7.14-11.62,8.68-1.25.63-2.75.68-3.97,0-2.56-1.43-2.67-4.86-3.33-8.73-1.33-7.87-.52-28.65,1.4-39.39,1.16-6.48-1.89-9.62-4.48-11.09-1.4-.79-2.97-1.21-4.55-1.33l-6.62-.52c-2-.16-4.02-.29-6.01-.35-3.73-.11-12.84-.75-25.96-3.86-13.85-3.29-17.27-8.78-18.08-10.92-.37-.95-.71-1.9-1.16-2.82l-3.3-7.05c-1.56-3.32-3.52-6.43-5.92-9.22-3.48-4.05-7.92-8.36-6.86-2.7,1.03,5.46,3.63,12.3,6.35,17.66,1.92,3.81,5.33,6.63,9.43,7.78l6.6,1.84s13.57,3.65,19.81,3.09c4.94-.43,19.11-3.73,25.49.78s-1.17,13.79-1.17,13.79c0,0-4.43,7.4-21.82,11.52-9.73,2.32-15.36,3.75-17.89,7.06-2.76,3.63-.97,4.4,1.22,4.35,2.81-.05,5.48-1.29,7.49-3.27,2.56-2.49,5.67-7.06,6.6-14.9,2.06-17.04,11.9-21.06,15.19-21.87.67-.16,1.32-.33,1.97-.54,2.57-.78,10.13-2.44,22.66-.4,12.71,2.08,13.27,3.94,20.08,6.92,6.84,3.02,14.66,4.48,21.47.19,3.76-2.36,6.14-6.16,7.51-9.06.78-1.63,1.33-3.36,1.78-5.13.6-2.35,2.56-8.19,7.44-10.25,4.09-1.73,5.3,1.67,5.08,3.82-.27,2.48-2.95,4.4-5.14,5.6-5.27,2.9-16.27,10.43-23.17,11.82-8.82,1.78-15.39.22-17.38-2.65-2.79-4.05-1.06-7.49.11-11.81,1.17-4.4,2.73-11.66,3.32-16.19,1.46-11.09,1.59-20.98,1.98-34.28.54-17.81-11.63-26.3-11.63-26.3,0,0-7.92-6.81-17.58-8.95-6.08-1.35-14.62-1.17-19.87-.41-4.73.68-9.41,1.76-13.25,4.6-2.63,1.95-4.32,4.08-1.41,5.25,4.59,1.86,13.38,1.38,17.73,1,1.52-.13,3.03-.35,4.52-.68,6.36-1.36,26.35-5.68,31.07-9.14s-2.54-5.17-2.54-5.17c0,0-8.79-1.65-14.19-2.21-11.4-1.17-19.9.06-27.25,1.36-6.28,1.11-12.28,3.55-17.39,7.4-4.38,3.29-6.19,7.63-2.49,10.68,4.43,3.63,11.13,4.94,15.79,5.38,2.73.27,5.48.22,8.21-.1,8.87-1.05,36.11-4.35,45.37-6.44,11.13-2.52,16.05-7.81,16.79-10.71s.05-6.28-2.59-6.51-2.75,2.14-3.06,4.81-.05,5.54.68,8.22c1.52,5.52,6.94,19.22,7.7,42.56.25,7.79-.22,12.79-1.02,17.6-1.87,11.41-7.55,19.68-21.33,22.71-12.92,2.84-34.04,3.21-46.28-2.56-17.55-8.27-21.47-34.98-23.47-51.1-1.9-15.33-7.05-21.93-10.13-20.71-3.08,1.22-1.54,7.3,1.63,9.84,1.97,1.57,3.86,2.62,5.49,3.51,4.21,2.27,9.55,3.3,14.32,3.71,7.47.63,18.06-.73,26.15-2.3,36.49-7.13,25.85,50.4,25.85,50.4" fill="none" stroke="#313d26" stroke-linecap="round" stroke-miterlimit="10" stroke-width="2"/>
</svg>